<svg width="2374" height="1325" viewBox="0 0 2374 1325" fill="none" xmlns="http://www.w3.org/2000/svg">
<path d="M1062.94 527.98L973.27 539.33" stroke="#4A5086" stroke-width="2"/>
<path d="M973.27 539.33L838.71 556.06" stroke="#386283" stroke-width="2"/>
<path d="M838.71 556.06L730.18 569.67" stroke="#2C6C80" stroke-width="2"/>
<path d="M730.18 569.67C711.987 571.75 693.8 573.96 675.62 576.3C644.447 580.3 627.48 582.463 624.72 582.79C594.674 586.317 577.68 588.353 573.74 588.9C557.39 591.16 540.7 596.23 525.71 602.78C482.63 621.59 444.63 648.82 413.14 683.59C405.794 691.703 400.11 698.287 396.09 703.34C389.564 711.547 382.024 721.71 373.47 733.83C369.464 739.503 365.04 746.127 360.2 753.7C355.914 760.407 351.59 767.093 347.23 773.76" stroke="#20757F" stroke-width="2"/>
<path d="M347.23 773.76L343.19 780.24" stroke="#137D7F" stroke-width="2"/>
<path d="M343.19 780.24C335.803 792.267 328.987 804.447 322.74 816.78C322.712 816.846 322.707 816.92 322.726 816.989C322.745 817.058 322.787 817.119 322.844 817.162C322.902 817.204 322.973 817.227 323.044 817.224C323.116 817.222 323.185 817.196 323.24 817.15C327.147 813.323 331.117 809.83 335.15 806.67C354.57 791.46 376.1 779.42 400.01 771.56C411.117 767.913 420.617 765.32 428.51 763.78C438.563 761.82 449.73 760.34 462.01 759.34C471.57 758.57 482.71 758.89 493.03 759" stroke="#20757F" stroke-width="2"/>
<path d="M493.03 759C506.71 759.32 520.357 760.21 533.97 761.67C543.317 762.67 552.654 763.75 561.98 764.91C593.287 768.81 624.547 772.937 655.76 777.29" stroke="#2C6C80" stroke-width="2"/>
<path d="M655.76 777.29L737.77 788.63" stroke="#386283" stroke-width="2"/>
<path d="M737.771 788.63C749.391 790.397 756.987 791.48 760.56 791.88C789.8 795.15 818.63 789.51 845.47 776.44C856.637 771.007 867.057 764.927 876.73 758.2C876.81 758.144 876.871 758.065 876.905 757.974C876.939 757.882 876.945 757.783 876.921 757.687C876.898 757.592 876.846 757.505 876.773 757.438C876.7 757.37 876.608 757.326 876.51 757.31L757.32 740.28" stroke="#4A5086" stroke-width="2"/>
<path d="M757.32 740.28L680.7 730.19" stroke="#386283" stroke-width="2"/>
<path d="M680.7 730.19L665.83 728C665.74 727.989 665.656 727.95 665.59 727.888C665.524 727.827 665.479 727.746 665.461 727.658C665.444 727.569 665.454 727.477 665.492 727.395C665.529 727.313 665.591 727.245 665.67 727.2C669.98 724.64 675.46 720.98 680.75 721.46C689.09 722.227 697.37 722.847 705.59 723.32" stroke="#2C6C80" stroke-width="2"/>
<path d="M705.59 723.32L813.18 732.3" stroke="#386283" stroke-width="2"/>
<path d="M813.18 732.3L891.42 738.73" stroke="#4A5086" stroke-width="2"/>
<path d="M891.42 738.73C898.527 739.21 905.303 739.043 911.75 738.23C929.697 735.977 946.777 730.797 962.99 722.69C974.19 717.083 985.41 710.577 996.65 703.17C1002.75 699.15 1008.7 694.62 1014.5 689.58C1014.58 689.506 1014.64 689.408 1014.67 689.3C1014.7 689.191 1014.69 689.077 1014.66 688.971C1014.62 688.866 1014.55 688.774 1014.46 688.708C1014.37 688.641 1014.26 688.604 1014.15 688.6L925.45 685.45" stroke="#544489" stroke-width="2"/>
<path d="M925.45 685.45L844.22 682.31" stroke="#4A5086" stroke-width="2"/>
<path d="M844.22 682.31L751.3 678.3C751.224 678.295 751.151 678.266 751.092 678.218C751.033 678.17 750.99 678.105 750.969 678.032C750.948 677.958 750.951 677.881 750.976 677.809C751.001 677.737 751.048 677.674 751.11 677.63C754.27 675.523 757.663 673.57 761.29 671.77C763.01 670.923 765.413 670.49 768.5 670.47C798.1 670.303 827.693 670.13 857.28 669.95" stroke="#386283" stroke-width="2"/>
<path d="M857.28 669.95L933.45 669.25" stroke="#4A5086" stroke-width="2"/>
<path d="M933.45 669.25C954.4 669.14 976.03 668.47 996.26 668.67C1007.68 668.777 1016.18 668.65 1021.75 668.29C1027.75 667.897 1033.09 667.043 1037.76 665.73C1061.68 659.017 1082.95 647.29 1101.57 630.55C1109.5 623.417 1116.95 615.45 1123.91 606.65C1124.9 605.39 1125.87 603.997 1126.82 602.47C1126.85 602.427 1126.86 602.378 1126.86 602.328C1126.86 602.278 1126.84 602.229 1126.82 602.187C1126.79 602.144 1126.76 602.109 1126.71 602.085C1126.67 602.061 1126.62 602.049 1126.57 602.05C1116.81 602.31 1106.29 602.58 1094.79 603.45C1092.48 603.63 1078.8 604.653 1053.73 606.52C1025.33 608.64 996.917 610.73 968.49 612.79" stroke="#544489" stroke-width="2"/>
<path d="M968.491 612.79L886.061 618.47" stroke="#4A5086" stroke-width="2"/>
<path d="M886.06 618.47C877.014 618.99 867.99 619.607 858.99 620.32C850.91 620.96 844.904 621.207 840.97 621.06C840.901 621.057 840.835 621.032 840.78 620.989C840.726 620.947 840.685 620.889 840.665 620.824C840.645 620.758 840.647 620.689 840.669 620.625C840.692 620.562 840.734 620.508 840.79 620.47C848.344 615.35 852.737 612.51 853.97 611.95C855.53 611.243 856.714 610.847 857.52 610.76C865.9 609.82 884.79 607.86 914.19 604.88" stroke="#386283" stroke-width="2"/>
<path d="M914.19 604.88L1017.21 594.22" stroke="#4A5086" stroke-width="2"/>
<path d="M1017.21 594.22C1041.77 591.907 1066.27 589.633 1090.7 587.4C1103.06 586.267 1113.92 584.893 1123.29 583.28C1133.57 581.513 1143.99 578.023 1154.56 572.81C1162.03 569.117 1169.21 564.47 1176.09 558.87C1184.08 552.37 1190.36 546.553 1194.93 541.42C1197.27 538.8 1202.78 531.773 1211.46 520.34C1214.17 516.77 1215.84 512.94 1218.21 509.84C1218.27 509.77 1218.3 509.685 1218.31 509.596C1218.31 509.507 1218.29 509.418 1218.25 509.339C1218.2 509.261 1218.14 509.198 1218.05 509.157C1217.97 509.116 1217.88 509.1 1217.79 509.11L1062.94 527.98" stroke="#544489" stroke-width="2"/>
<path d="M1017.21 594.22C1026.42 581.733 1035.65 569.333 1044.9 557.02C1051.12 548.727 1057.13 539.047 1062.94 527.98" stroke="#7D6EE8" stroke-width="2"/>
<path d="M914.19 604.88C921.85 593.893 930.327 583.773 939.62 574.52C951.094 563.093 962.31 551.363 973.27 539.33" stroke="#618CE2" stroke-width="2"/>
<path d="M886.06 618.47C882.94 625.59 879.974 631.383 877.16 635.85C868.41 649.73 863.38 657.6 857.28 669.95" stroke="#618CE2" stroke-width="2"/>
<path d="M844.22 682.31C833.63 698.87 822.36 714.8 813.18 732.3" stroke="#618CE2" stroke-width="2"/>
<path d="M705.59 723.32C712.643 715.527 718.61 708.183 723.49 701.29C730.276 691.683 735.52 681.1 739.22 669.54" stroke="#43A7DC" stroke-width="2"/>
<path d="M739.22 669.54C744.94 666.66 750.487 663.573 755.86 660.28C766.473 653.753 771.883 650.43 772.09 650.31C782.237 644.323 792.23 638.027 802.07 631.42C802.114 631.39 802.148 631.349 802.17 631.301C802.192 631.253 802.2 631.199 802.194 631.147C802.188 631.094 802.168 631.044 802.135 631.003C802.103 630.961 802.059 630.929 802.01 630.91C801.583 630.737 801.077 630.667 800.49 630.7C778.37 631.94 756.317 633.643 734.33 635.81" stroke="#386283" stroke-width="2"/>
<path d="M734.33 635.81C732.383 631.663 729.51 628.207 725.71 625.44" stroke="#43A7DC" stroke-width="2"/>
<path d="M725.71 625.44L820.28 618.58C820.681 618.547 821.068 618.42 821.41 618.21C824.41 616.36 826.62 615.21 829.3 613.49C847.83 601.59 870.78 587.7 887.71 576.69C888.877 575.93 889.733 575.26 890.28 574.68C890.31 574.651 890.329 574.612 890.335 574.571C890.341 574.53 890.333 574.487 890.313 574.451C890.292 574.414 890.26 574.386 890.222 574.369C890.183 574.353 890.14 574.35 890.1 574.36L836.03 585.65" stroke="#386283" stroke-width="2"/>
<path d="M836.031 585.65C841.344 578.017 845.984 569.957 849.95 561.47C850.173 560.997 850.23 560.462 850.113 559.952C849.995 559.443 849.709 558.987 849.3 558.66C848.347 557.893 846.8 557.513 844.66 557.52C840.594 557.54 836.52 557.673 832.44 557.92C832.408 557.927 832.375 557.92 832.349 557.901C832.323 557.882 832.306 557.853 832.302 557.82C832.298 557.787 832.307 557.752 832.327 557.724C832.348 557.696 832.378 557.677 832.41 557.67L838.711 556.06" stroke="#43A7DC" stroke-width="2"/>
<path d="M725.71 625.44L698.54 627.65" stroke="#2C6C80" stroke-width="2"/>
<path d="M925.45 685.45C920.717 696.35 914.87 706.583 907.91 716.15C902.457 723.643 896.96 731.17 891.42 738.73" stroke="#7D6EE8" stroke-width="2"/>
<path d="M734.33 635.81L697.84 638.51C697.738 638.518 697.641 638.556 697.562 638.621C697.483 638.685 697.426 638.772 697.398 638.87C697.369 638.968 697.372 639.072 697.404 639.168C697.437 639.265 697.498 639.349 697.58 639.41L739.22 669.54" stroke="#2C6C80" stroke-width="2"/>
<path d="M680.7 730.19C683.613 734.35 684.9 738.257 684.56 741.91C683.933 748.623 681.66 756.067 677.74 764.24C673.05 774.01 665.47 775.42 655.76 777.29" stroke="#43A7DC" stroke-width="2"/>
<path d="M493.03 759C493.43 758.447 493.574 758.097 493.46 757.95C493.407 757.878 493.375 757.793 493.367 757.704C493.359 757.615 493.375 757.525 493.415 757.445C493.454 757.365 493.514 757.297 493.589 757.248C493.664 757.2 493.751 757.173 493.84 757.17C501.254 757.143 508.627 757.53 515.96 758.33C525.8 759.4 538.47 760.67 544.64 760.98C549.387 761.22 555.29 761.873 562.35 762.94C566.937 763.633 572.85 764.303 580.09 764.95C580.355 764.976 580.623 764.936 580.869 764.835C581.116 764.735 581.334 764.575 581.506 764.371C581.678 764.166 581.798 763.923 581.857 763.662C581.915 763.4 581.909 763.129 581.84 762.87C581.14 760.25 580.45 757.453 579.77 754.48C577.55 744.63 566.18 747.31 560.19 742.06C555.804 738.207 551.517 733.323 547.33 727.41" stroke="#2BBBD8" stroke-width="2"/>
<path d="M547.33 727.41C552.73 731.623 557.953 735.927 563 740.32C565.47 742.48 567.92 744.12 570.85 744.65C581.203 746.517 591.633 748.09 602.14 749.37C603.267 749.507 604.408 749.297 605.41 748.77C616.817 742.803 626.423 737.537 634.23 732.97C635.11 732.457 635.817 731.937 636.35 731.41C636.408 731.35 636.449 731.276 636.467 731.195C636.485 731.113 636.481 731.029 636.454 730.95C636.427 730.871 636.379 730.802 636.314 730.749C636.25 730.696 636.173 730.661 636.09 730.65L579.65 723.44" stroke="#2C6C80" stroke-width="2"/>
<path d="M579.65 723.44L576.95 711.79" stroke="#2BBBD8" stroke-width="2"/>
<path d="M576.95 711.79C591.57 713.417 605.933 715.54 620.04 718.16C623.65 718.83 628.02 719.11 631.62 719.39C631.679 719.393 631.738 719.379 631.79 719.349C631.841 719.319 631.882 719.274 631.907 719.22C631.933 719.167 631.942 719.107 631.934 719.048C631.926 718.989 631.9 718.934 631.86 718.89L605.22 691.78" stroke="#2C6C80" stroke-width="2"/>
<path d="M614.8 670.51C632.11 671.04 648.93 671.78 666.74 672.16C683.226 672.52 699.653 673.283 716.02 674.45C716.547 674.49 716.916 674.477 717.13 674.41C717.278 674.361 717.41 674.272 717.511 674.152C717.612 674.033 717.679 673.888 717.704 673.732C717.728 673.577 717.71 673.418 717.651 673.271C717.593 673.124 717.495 672.996 717.37 672.9L686.35 649.51" stroke="#2C6C80" stroke-width="2"/>
<path d="M836.03 585.65L748.97 603.61" stroke="#2C6C80" stroke-width="2"/>
<path d="M748.97 603.61L749.27 603C749.274 602.99 749.275 602.979 749.273 602.968C749.271 602.957 749.266 602.947 749.259 602.939C749.252 602.931 749.242 602.924 749.232 602.921C749.221 602.918 749.21 602.917 749.2 602.92C749.06 602.967 748.976 602.987 748.95 602.98C748.876 602.958 748.81 602.914 748.762 602.853C748.715 602.792 748.687 602.718 748.684 602.641C748.681 602.563 748.702 602.487 748.744 602.422C748.786 602.358 748.848 602.308 748.92 602.28C752.766 600.64 757.3 599.493 762.52 598.84C762.971 598.781 763.396 598.601 763.75 598.32C775.236 589.113 781.923 583.617 783.81 581.83C789.15 576.79 793.35 572.31 793.23 564.62C793.229 564.556 793.214 564.492 793.188 564.433C793.161 564.375 793.122 564.322 793.075 564.279C793.027 564.236 792.971 564.203 792.91 564.183C792.849 564.162 792.784 564.154 792.72 564.16C783.2 565 775.956 565.833 770.99 566.66C758.52 568.74 749.52 569.17 735.69 570.9C733.783 571.133 731.946 570.723 730.18 569.67" stroke="#2BBBD8" stroke-width="2"/>
<path d="M748.97 603.61L671.92 619.03C671.844 619.046 671.776 619.083 671.721 619.137C671.666 619.19 671.628 619.259 671.611 619.334C671.594 619.409 671.6 619.487 671.626 619.559C671.652 619.631 671.699 619.694 671.76 619.74L683.17 628.02C684.04 628.646 685.105 628.937 686.17 628.84L698.54 627.65" stroke="#20757F" stroke-width="2"/>
<path d="M698.54 627.65C695.5 635.563 691.436 642.85 686.35 649.51" stroke="#2BBBD8" stroke-width="2"/>
<path d="M686.35 649.51L679.081 644.27C678.036 643.509 676.754 643.15 675.47 643.26C648.084 645.56 624.267 647.737 604.021 649.79C602.687 649.93 598.36 650.537 591.04 651.61C590.985 651.62 590.934 651.644 590.891 651.681C590.849 651.718 590.817 651.765 590.8 651.819C590.782 651.872 590.779 651.929 590.792 651.984C590.804 652.039 590.832 652.089 590.871 652.13L608.561 669.81C608.741 669.997 608.983 670.111 609.241 670.13L614.801 670.51" stroke="#20757F" stroke-width="2"/>
<path d="M614.8 670.51L605.22 691.78" stroke="#2BBBD8" stroke-width="2"/>
<path d="M605.22 691.78L572.42 660.93" stroke="#20757F" stroke-width="2"/>
<path d="M572.42 660.93C577.287 655.15 579.73 648.61 579.75 641.31" stroke="#12CCD7" stroke-width="2"/>
<path d="M579.75 641.31C583.31 641.17 587 641.15 590.42 640.81C610.573 638.77 630.52 636.51 650.26 634.03C654.507 633.497 658.597 632.847 662.53 632.08C662.77 632.033 662.9 631.897 662.92 631.67C662.947 631.357 662.84 631.1 662.6 630.9C660.34 629.02 656.373 626.247 650.7 622.58C650.455 622.421 650.185 622.306 649.9 622.24C648.787 621.987 647.67 622.01 646.55 622.31C624.71 628.15 602.63 632.94 580.67 638.59" stroke="#20757F" stroke-width="2"/>
<path d="M580.67 638.59C584.31 634.023 589.797 631.287 597.13 630.38C601.83 629.8 609.927 628.27 621.42 625.79C621.788 625.711 622.128 625.543 622.41 625.3C630.59 618.387 639.744 609.677 649.87 599.17C652.85 596.07 657.86 590.98 655.7 586.41C655.327 585.623 654.14 584.45 652.14 582.89C651.881 582.69 651.559 582.587 651.23 582.6C637.164 583.327 622.717 584.823 607.89 587.09C601.99 587.99 596.967 588.63 592.82 589.01C587.78 589.47 582.734 589.943 577.68 590.43C573.707 590.81 568.034 591.917 560.66 593.75C558.807 594.21 553.18 595.59 543.78 597.89C536.88 599.58 531.34 602.17 524.77 605.75C522.697 606.877 520.01 608.163 516.71 609.61C510.79 612.21 505.034 615.06 499.44 618.16C494.91 620.66 491.09 623.75 486.47 626.1C481.59 628.57 477.31 632.43 472.38 635.05C467.52 637.62 462.41 641.26 457.5 646.07C453.84 649.663 449.857 652.79 445.55 655.45C444.627 656.021 443.775 656.696 443.01 657.46C439.19 661.273 434.714 665.563 429.58 670.33C425.72 673.92 421.33 679.58 417.2 683.3C411.85 688.14 407.48 694.29 402.6 699.54C395.57 707.08 390.99 714.01 383.09 724.32C379.55 728.94 376.71 734.14 372.99 738.37C369.95 741.83 367.29 745.233 365.01 748.58C361.34 753.96 358.32 757.52 355.12 762.89C352.96 766.51 350.6 770.52 347.23 773.76" stroke="#12CCD7" stroke-width="2"/>
<path d="M757.32 740.28L737.771 788.63" stroke="#618CE2" stroke-width="2"/>
<path d="M557.74 648C557.087 647.267 556.36 646.73 555.56 646.39C555.396 646.321 555.22 646.286 555.043 646.287C554.866 646.289 554.691 646.328 554.53 646.4C549.84 648.47 545.66 651.18 540.87 653.56C534.05 656.967 527.66 660.34 521.7 663.68C512.97 668.59 505.18 672 497.13 677.11C495.997 677.823 495.033 678.57 494.24 679.35C494.187 679.403 494.145 679.466 494.117 679.535C494.089 679.605 494.075 679.68 494.077 679.754C494.079 679.829 494.096 679.903 494.128 679.971C494.159 680.039 494.204 680.1 494.26 680.15L520.32 703.53C521.231 704.344 522.368 704.864 523.58 705.02L576.95 711.79" stroke="#20757F" stroke-width="2"/>
<path d="M579.65 723.44C568.643 721.873 557.776 720.32 547.05 718.78C544.17 718.36 540.89 718.23 537.85 718.12C537.78 718.118 537.712 718.137 537.654 718.175C537.596 718.213 537.551 718.268 537.525 718.332C537.499 718.396 537.493 718.467 537.508 718.534C537.523 718.602 537.559 718.663 537.61 718.71L547.33 727.41" stroke="#20757F" stroke-width="2"/>
<path d="M933.45 669.25C940.04 655.24 947.03 644.98 956.75 631.58C959.597 627.653 963.51 621.39 968.49 612.79" stroke="#7D6EE8" stroke-width="2"/>
<path d="M580.67 638.59L578.27 639.88C578.205 639.915 578.15 639.965 578.108 640.024C578.065 640.084 578.037 640.153 578.026 640.226C578.014 640.298 578.019 640.372 578.041 640.442C578.062 640.512 578.099 640.577 578.15 640.63C578.456 640.943 578.99 641.17 579.75 641.31" stroke="#137D7F" stroke-width="2"/>
<path d="M572.42 660.93L557.74 648" stroke="#137D7F" stroke-width="2"/>
<path d="M557.74 648L557.56 645.87C557.549 645.722 557.486 645.582 557.381 645.476C557.277 645.37 557.138 645.304 556.99 645.29C553.784 644.97 551.167 645.357 549.14 646.45C536.45 653.28 522.99 657.74 511.12 663.24C499.12 668.81 490.55 675.5 477.09 685.43C473.94 687.75 469.78 690.23 466.03 692.95C463.764 694.597 461.61 695.95 459.57 697.01C456.72 698.49 452.32 700.45 449.06 703.05C444.127 706.997 439.784 710.613 436.03 713.9C434.07 715.62 429.937 719.043 423.63 724.17C420.457 726.75 416.347 730.21 411.3 734.55C406.393 738.77 402.564 743.737 399.81 749.45C399.753 749.57 399.727 749.704 399.736 749.837C399.745 749.97 399.788 750.098 399.86 750.209C399.933 750.32 400.033 750.41 400.15 750.469C400.268 750.529 400.399 750.557 400.53 750.55C403.724 750.397 406.877 749.787 409.99 748.72C421.823 744.693 433.79 742.03 445.89 740.73C449.544 740.343 454.48 740.07 460.7 739.91C469.994 739.67 474.94 739.543 475.54 739.53C482.71 739.32 487.73 739.37 493.17 740.53C493.233 740.544 493.292 740.572 493.343 740.611C493.394 740.65 493.436 740.7 493.465 740.758C493.495 740.815 493.512 740.878 493.514 740.942C493.517 741.007 493.505 741.071 493.48 741.13C493.327 741.477 493.314 741.847 493.44 742.24C494.62 745.8 495.91 750.207 497.31 755.46C497.325 755.51 497.357 755.552 497.399 755.578C497.442 755.604 497.493 755.612 497.54 755.6C497.707 755.573 497.824 755.597 497.89 755.67C497.918 755.699 497.937 755.735 497.944 755.774C497.951 755.814 497.947 755.854 497.93 755.891C497.914 755.928 497.888 755.959 497.854 755.98C497.82 756.001 497.78 756.012 497.74 756.01C492.794 756.01 488.274 756.137 484.18 756.39C474.33 756.98 462.75 756.18 455.37 756.08C449.87 756 443.23 756.493 435.45 757.56C430.21 758.28 424.7 761.62 419.32 763.26C404.25 767.84 399.55 769.84 387.13 773.04C381.084 774.6 374.24 777.45 366.6 781.59C363.86 783.083 361.39 784.87 359.19 786.95C354.3 791.58 351.16 794.46 344.46 796.05C344.216 796.108 343.96 796.102 343.717 796.032C343.474 795.962 343.251 795.83 343.07 795.65L339.94 792.52C339.692 792.272 339.519 791.959 339.441 791.617C339.363 791.276 339.384 790.92 339.5 790.59L343.19 780.24" stroke="#12CCD7" stroke-width="2"/>
<path d="M1511.62 663.03C1511.42 686.2 1516.09 707.7 1526.41 728.73C1541.64 759.76 1569.34 783.79 1601.48 796.81C1621.43 804.9 1642.49 808.77 1664.1 808.95C1685.71 809.13 1706.82 805.62 1726.91 797.87C1759.26 785.38 1787.36 761.82 1803.11 731.05C1813.78 710.2 1818.81 688.77 1819 665.6C1819.2 642.43 1814.53 620.93 1804.21 599.91C1788.98 568.87 1761.28 544.84 1729.14 531.82C1709.19 523.73 1688.13 519.86 1666.52 519.68C1644.91 519.5 1623.8 523.01 1603.71 530.77C1571.36 543.25 1543.26 566.81 1527.51 597.59C1516.84 618.44 1511.81 639.86 1511.62 663.03Z" stroke="#909393" stroke-width="2"/>
<path d="M1871.13 724.75C1868.5 729.563 1866.17 734.367 1864.13 739.16C1858.68 751.96 1854.69 760.02 1848.67 773.35C1848.51 773.708 1848.48 774.111 1848.58 774.49C1848.68 774.869 1848.91 775.201 1849.23 775.43C1860.1 783.31 1870.95 788.32 1884.17 793.84C1901.69 801.16 1920.38 805.723 1940.24 807.53C1955.35 808.903 1968.94 809.173 1981.01 808.34C1983.66 808.16 1987.77 807.733 1993.35 807.06C2013.15 804.667 2031.52 798.293 2048.45 787.94C2055.44 783.66 2061.91 777.567 2067.85 769.66C2073.92 761.587 2077.97 753.8 2079.99 746.3C2082.22 738.02 2083.29 729 2083.19 719.24C2082.99 700.673 2076.52 685.2 2063.78 672.82C2060.67 669.79 2055.63 665.3 2051.81 662.85C2042.8 657.09 2034.36 652.813 2026.49 650.02C2014.14 645.627 2000.55 641.94 1985.72 638.96C1967.9 635.38 1953.55 632.37 1939.54 626.72C1929.16 622.53 1918.91 616.3 1918.62 603.66C1918.38 593.233 1922.98 585.477 1932.42 580.39C1942.7 574.857 1954.48 571.96 1967.76 571.7C1978.19 571.5 1984.85 571.603 1987.76 572.01C2010.5 575.23 2031.55 582.663 2050.91 594.31C2051.06 594.4 2051.22 594.457 2051.39 594.477C2051.57 594.497 2051.74 594.48 2051.9 594.427C2052.07 594.374 2052.22 594.286 2052.35 594.169C2052.47 594.052 2052.57 593.909 2052.64 593.75L2072.73 545.96C2072.83 545.716 2072.84 545.443 2072.76 545.191C2072.68 544.939 2072.51 544.726 2072.28 544.59C2064.27 539.89 2055.74 535.903 2046.67 532.63C2038.72 529.763 2032.38 527.683 2027.63 526.39C2012.36 522.243 1998.15 520.053 1985 519.82C1972.71 519.593 1964.47 519.567 1960.26 519.74C1937.11 520.68 1916.16 526.073 1897.41 535.92C1868.94 550.87 1851.89 579.79 1853.94 611.98C1854.55 621.667 1856.8 630.497 1860.68 638.47C1865.74 648.86 1875.66 659.17 1885.2 665.3C1896.81 672.773 1909.72 678.45 1923.94 682.33C1938.42 686.277 1952.35 689.713 1965.72 692.64C1979.91 695.75 1991.49 698.88 2003.03 703.77C2016.52 709.48 2022.41 719.7 2018.87 733.97C2017.86 738.037 2015.57 741.48 2012.01 744.3C1997.37 755.9 1976.14 756 1958.32 755.65C1941.63 755.31 1924.8 751.35 1909.57 745.17C1901.46 741.877 1896.14 739.523 1893.61 738.11C1886.42 734.09 1879.09 729.597 1871.62 724.63C1871.58 724.605 1871.54 724.588 1871.49 724.58C1871.44 724.573 1871.4 724.575 1871.35 724.586C1871.3 724.597 1871.26 724.617 1871.22 724.646C1871.19 724.674 1871.15 724.709 1871.13 724.75Z" stroke="#909393" stroke-width="2"/>
<path d="M1304.51 534.47C1300.89 542.6 1297.36 551.19 1293.81 558.92C1281.62 585.433 1269.45 611.97 1257.3 638.53" stroke="#2C6C80" stroke-width="2"/>
<path d="M1257.3 638.53L1181.9 803.73C1181.86 803.816 1181.84 803.91 1181.85 804.005C1181.85 804.1 1181.88 804.191 1181.93 804.271C1181.98 804.351 1182.05 804.417 1182.14 804.462C1182.22 804.507 1182.31 804.531 1182.41 804.53H1246.87C1247.13 804.53 1247.38 804.456 1247.59 804.318C1247.81 804.179 1247.98 803.982 1248.08 803.75L1272.89 746.84" stroke="#20757F" stroke-width="2"/>
<path d="M1272.89 746.84C1273.5 745.44 1274.21 744.723 1275 744.69C1278.29 744.57 1286.3 744.547 1299.03 744.62" stroke="#2C6C80" stroke-width="2"/>
<path d="M1299.03 744.62L1376.04 744.66" stroke="#386283" stroke-width="2"/>
<path d="M1376.04 744.66L1397.53 744.64" stroke="#4A5086" stroke-width="2"/>
<path d="M1397.53 744.64L1408.72 744.66C1409.04 744.66 1409.35 744.753 1409.62 744.927C1409.88 745.101 1410.09 745.349 1410.22 745.64L1436.03 804.39C1436.06 804.458 1436.11 804.516 1436.17 804.557C1436.23 804.597 1436.3 804.619 1436.37 804.62H1502.8C1502.91 804.62 1503.03 804.592 1503.13 804.537C1503.23 804.483 1503.31 804.404 1503.37 804.309C1503.43 804.213 1503.47 804.104 1503.48 803.991C1503.49 803.877 1503.47 803.764 1503.42 803.66L1422.48 627.52" stroke="#544489" stroke-width="2"/>
<path d="M1422.48 627.52L1375.7 524.47C1375.57 524.193 1375.37 523.958 1375.11 523.793C1374.86 523.628 1374.56 523.54 1374.25 523.54L1367.29 523.52" stroke="#4A5086" stroke-width="2"/>
<path d="M1367.29 523.52L1310.22 523.45C1309.99 523.45 1309.77 523.517 1309.57 523.643C1309.38 523.769 1309.23 523.948 1309.13 524.16L1304.51 534.47" stroke="#386283" stroke-width="2"/>
<path d="M1367.29 523.52C1368.98 539.78 1369.02 556.39 1367.39 573.35C1365.75 590.457 1364.18 610.427 1362.68 633.26" stroke="#618CE2" stroke-width="2"/>
<path d="M1362.68 633.26C1355.83 617.32 1349.18 601.303 1342.73 585.21C1342.61 584.903 1342.45 584.723 1342.24 584.67C1341.9 584.583 1341.66 584.7 1341.53 585.02C1330.78 611.433 1319.71 637.86 1308.32 664.3" stroke="#386283" stroke-width="2"/>
<path d="M1308.32 664.3C1308.57 639.793 1308.82 615.353 1309.08 590.98C1309.28 571.987 1307.76 553.15 1304.51 534.47" stroke="#43A7DC" stroke-width="2"/>
<path d="M1422.48 627.52C1416.68 648.31 1414.48 666.6 1412.84 689.16C1411.51 707.453 1410.03 725.723 1408.42 743.97C1408.41 744.122 1408.34 744.263 1408.23 744.366C1408.11 744.47 1407.97 744.528 1407.82 744.53L1397.53 744.64" stroke="#7D6EE8" stroke-width="2"/>
<path d="M1376.04 744.66C1375.51 744.673 1375.03 744.61 1374.62 744.47C1374.48 744.421 1374.35 744.327 1374.26 744.203C1374.18 744.078 1374.13 743.93 1374.14 743.78C1374.71 727.24 1375.9 710.707 1377.7 694.18" stroke="#618CE2" stroke-width="2"/>
<path d="M1377.7 694.18L1387.77 694.29C1387.88 694.293 1388 694.267 1388.1 694.214C1388.2 694.162 1388.29 694.085 1388.35 693.99C1388.41 693.895 1388.45 693.786 1388.46 693.673C1388.47 693.559 1388.46 693.445 1388.41 693.34L1362.68 633.26" stroke="#4A5086" stroke-width="2"/>
<path d="M1377.7 694.18L1303.77 694.22" stroke="#386283" stroke-width="2"/>
<path d="M1308.32 664.3L1295.77 693.18C1295.72 693.302 1295.69 693.436 1295.71 693.569C1295.72 693.702 1295.76 693.83 1295.84 693.941C1295.91 694.052 1296.01 694.144 1296.13 694.206C1296.24 694.269 1296.38 694.301 1296.51 694.3L1303.77 694.22" stroke="#2C6C80" stroke-width="2"/>
<path d="M1303.77 694.22C1304.47 710.807 1304.39 727.39 1303.52 743.97C1303.52 744.109 1303.46 744.241 1303.36 744.339C1303.26 744.438 1303.13 744.495 1302.99 744.5L1299.03 744.62" stroke="#43A7DC" stroke-width="2"/>
<path d="M1272.89 746.84C1274.94 731.1 1276.23 715.333 1276.76 699.54C1277.15 688.053 1277.48 680.783 1277.76 677.73C1279.29 660.63 1280.01 645.17 1279.74 629.15C1279.64 623.49 1279.34 602.89 1268.74 619.71C1264.84 625.903 1261.03 632.177 1257.3 638.53" stroke="#2BBBD8" stroke-width="2"/>
<path d="M1609.16 734.06C1624.95 746.907 1643.43 753.383 1664.62 753.49C1700.28 753.68 1729.83 736.01 1745.7 704.16C1748.85 697.833 1751.02 690.793 1752.21 683.04C1754.98 664.94 1754.25 646.49 1747.86 629.93C1739.14 607.33 1721.82 588.56 1699.2 580.08C1679.73 572.787 1659.86 571.93 1639.6 577.51C1619.67 583.003 1603.82 594.337 1592.07 611.51C1581.05 627.61 1574.8 650.25 1576.67 669.78C1577.34 676.767 1578.34 682.867 1579.69 688.08C1584.5 706.653 1594.32 721.98 1609.16 734.06Z" stroke="#909393" stroke-width="2"/>
<path d="M716.23 684.41C714.863 684.61 713.537 684.677 712.25 684.61C695.95 683.78 682.75 683.96 666.76 683.06C650.533 682.153 634.837 681.707 619.67 681.72C619.573 681.721 619.479 681.749 619.398 681.802C619.317 681.855 619.253 681.93 619.213 682.02C619.173 682.109 619.159 682.208 619.173 682.305C619.187 682.403 619.227 682.494 619.29 682.57L652.14 720.69C652.225 720.788 652.341 720.853 652.469 720.875C652.596 720.897 652.727 720.874 652.84 720.81L716.42 684.94C716.48 684.91 716.527 684.859 716.552 684.797C716.577 684.735 716.577 684.666 716.555 684.602C716.532 684.538 716.486 684.483 716.427 684.448C716.367 684.413 716.297 684.399 716.23 684.41Z" stroke="#2C6C80" stroke-width="2"/>
<path d="M542.92 741.37C541.126 739.49 537.443 736.32 531.87 731.86C508.59 713.26 492.196 700.41 482.69 693.31C480.756 691.863 478.88 690.617 477.06 689.57C476.793 689.417 476.489 689.341 476.181 689.352C475.874 689.362 475.575 689.459 475.32 689.63C461.93 698.58 448.87 707.18 435.75 717.82C420.19 730.45 411.26 737.07 400.96 748.12C400.919 748.162 400.889 748.214 400.873 748.27C400.856 748.326 400.853 748.386 400.864 748.443C400.874 748.501 400.899 748.555 400.935 748.601C400.97 748.648 401.017 748.685 401.07 748.71C401.316 748.837 401.546 748.87 401.76 748.81C409.15 746.84 418.57 743.63 426.25 742.15C442.11 739.103 454.61 737.387 463.75 737C480.203 736.313 494.556 736.64 506.81 737.98C520.463 739.467 532.44 740.717 542.74 741.73C542.784 741.733 542.829 741.723 542.868 741.701C542.907 741.679 542.938 741.646 542.957 741.607C542.977 741.567 542.984 741.524 542.977 741.482C542.97 741.439 542.95 741.4 542.92 741.37Z" stroke="#20757F" stroke-width="2"/>
<path d="M1666.52 519.68C1688.13 519.86 1709.19 523.73 1729.14 531.82C1761.28 544.84 1788.98 568.87 1804.21 599.91C1814.53 620.93 1819.2 642.43 1819 665.6C1818.81 688.77 1813.78 710.2 1803.11 731.05C1787.36 761.82 1759.26 785.38 1726.91 797.87C1706.82 805.62 1685.71 809.13 1664.1 808.95C1642.49 808.77 1621.43 804.9 1601.48 796.81C1569.34 783.79 1541.64 759.76 1526.41 728.73C1516.09 707.7 1511.42 686.2 1511.62 663.03C1511.81 639.86 1516.84 618.44 1527.51 597.59C1543.26 566.81 1571.36 543.25 1603.71 530.77C1623.8 523.01 1644.91 519.5 1666.52 519.68ZM1609.16 734.06C1624.95 746.907 1643.43 753.383 1664.62 753.49C1700.28 753.68 1729.83 736.01 1745.7 704.16C1748.85 697.833 1751.02 690.793 1752.21 683.04C1754.98 664.94 1754.25 646.49 1747.86 629.93C1739.14 607.33 1721.82 588.56 1699.2 580.08C1679.73 572.787 1659.86 571.93 1639.6 577.51C1619.67 583.004 1603.82 594.337 1592.07 611.51C1581.05 627.61 1574.8 650.25 1576.67 669.78C1577.34 676.767 1578.34 682.867 1579.69 688.08C1584.5 706.654 1594.32 721.98 1609.16 734.06Z" fill="white"/>
<path d="M1871.13 724.75C1871.15 724.709 1871.19 724.674 1871.22 724.646C1871.26 724.617 1871.3 724.597 1871.35 724.586C1871.4 724.575 1871.44 724.573 1871.49 724.58C1871.54 724.588 1871.58 724.605 1871.62 724.63C1879.09 729.597 1886.42 734.09 1893.61 738.11C1896.14 739.523 1901.46 741.877 1909.57 745.17C1924.8 751.35 1941.63 755.31 1958.32 755.65C1976.14 756 1997.37 755.9 2012.01 744.3C2015.57 741.48 2017.86 738.037 2018.87 733.97C2022.41 719.7 2016.52 709.48 2003.03 703.77C1991.49 698.88 1979.91 695.75 1965.72 692.64C1952.35 689.713 1938.42 686.277 1923.94 682.33C1909.72 678.45 1896.81 672.773 1885.2 665.3C1875.66 659.17 1865.74 648.86 1860.68 638.47C1856.8 630.497 1854.55 621.667 1853.94 611.98C1851.89 579.79 1868.94 550.87 1897.41 535.92C1916.16 526.073 1937.11 520.68 1960.26 519.74C1964.47 519.567 1972.71 519.593 1985 519.82C1998.15 520.053 2012.36 522.243 2027.63 526.39C2032.38 527.683 2038.72 529.763 2046.67 532.63C2055.74 535.903 2064.27 539.89 2072.28 544.59C2072.51 544.726 2072.68 544.939 2072.76 545.191C2072.84 545.443 2072.83 545.716 2072.73 545.96L2052.64 593.75C2052.57 593.909 2052.47 594.052 2052.35 594.169C2052.22 594.286 2052.07 594.374 2051.9 594.427C2051.74 594.48 2051.57 594.497 2051.39 594.477C2051.22 594.457 2051.06 594.4 2050.91 594.31C2031.55 582.663 2010.5 575.23 1987.76 572.01C1984.85 571.603 1978.19 571.5 1967.76 571.7C1954.48 571.96 1942.7 574.857 1932.42 580.39C1922.98 585.477 1918.38 593.233 1918.62 603.66C1918.91 616.3 1929.16 622.53 1939.54 626.72C1953.55 632.37 1967.9 635.38 1985.72 638.96C2000.55 641.94 2014.14 645.627 2026.49 650.02C2034.36 652.813 2042.8 657.09 2051.81 662.85C2055.63 665.3 2060.67 669.79 2063.78 672.82C2076.52 685.2 2082.99 700.673 2083.19 719.24C2083.29 729 2082.22 738.02 2079.99 746.3C2077.97 753.8 2073.92 761.587 2067.85 769.66C2061.91 777.567 2055.44 783.66 2048.45 787.94C2031.52 798.293 2013.15 804.667 1993.35 807.06C1987.77 807.733 1983.66 808.16 1981.01 808.34C1968.94 809.173 1955.35 808.903 1940.24 807.53C1920.38 805.723 1901.69 801.16 1884.17 793.84C1870.95 788.32 1860.1 783.31 1849.23 775.43C1848.91 775.201 1848.68 774.869 1848.58 774.49C1848.48 774.111 1848.51 773.708 1848.67 773.35C1854.69 760.02 1858.68 751.96 1864.13 739.16C1866.17 734.367 1868.5 729.563 1871.13 724.75Z" fill="white"/>
<path d="M1017.21 594.22C1026.42 581.733 1035.65 569.333 1044.9 557.02C1051.12 548.727 1057.13 539.047 1062.94 527.98L1217.79 509.11C1217.88 509.1 1217.97 509.116 1218.05 509.157C1218.14 509.198 1218.2 509.261 1218.25 509.339C1218.29 509.418 1218.31 509.507 1218.31 509.596C1218.3 509.685 1218.27 509.77 1218.21 509.84C1215.84 512.94 1214.17 516.77 1211.46 520.34C1202.78 531.773 1197.27 538.8 1194.93 541.42C1190.36 546.553 1184.08 552.37 1176.09 558.87C1169.21 564.47 1162.03 569.117 1154.56 572.81C1143.99 578.023 1133.57 581.513 1123.29 583.28C1113.92 584.893 1103.06 586.267 1090.7 587.4C1066.27 589.633 1041.77 591.907 1017.21 594.22Z" fill="#8762EA"/>
<path d="M933.45 669.25C940.04 655.24 947.03 644.98 956.75 631.58C959.597 627.653 963.51 621.39 968.49 612.79C996.917 610.73 1025.33 608.64 1053.73 606.52C1078.8 604.653 1092.48 603.63 1094.79 603.45C1106.29 602.58 1116.81 602.31 1126.57 602.05C1126.62 602.049 1126.67 602.061 1126.71 602.085C1126.76 602.109 1126.79 602.144 1126.82 602.187C1126.84 602.229 1126.86 602.278 1126.86 602.328C1126.86 602.378 1126.85 602.427 1126.82 602.47C1125.87 603.997 1124.9 605.39 1123.91 606.65C1116.95 615.45 1109.5 623.417 1101.57 630.55C1082.95 647.29 1061.68 659.017 1037.76 665.73C1033.09 667.043 1027.75 667.897 1021.75 668.29C1016.18 668.65 1007.68 668.777 996.26 668.67C976.03 668.47 954.4 669.14 933.45 669.25Z" fill="#8762EA"/>
<path d="M1422.48 627.52L1503.42 803.66C1503.47 803.764 1503.49 803.877 1503.48 803.991C1503.47 804.104 1503.43 804.213 1503.37 804.309C1503.31 804.404 1503.23 804.483 1503.13 804.537C1503.03 804.592 1502.91 804.62 1502.8 804.62H1436.37C1436.3 804.619 1436.23 804.597 1436.17 804.557C1436.11 804.516 1436.06 804.458 1436.03 804.39L1410.22 745.64C1410.09 745.349 1409.88 745.101 1409.62 744.927C1409.35 744.753 1409.04 744.66 1408.72 744.66L1397.53 744.64L1407.82 744.53C1407.97 744.528 1408.11 744.47 1408.23 744.366C1408.34 744.263 1408.41 744.122 1408.42 743.97C1410.03 725.723 1411.51 707.453 1412.84 689.16C1414.48 666.6 1416.68 648.31 1422.48 627.52Z" fill="#8762EA"/>
<path d="M891.42 738.73C896.96 731.17 902.457 723.643 907.91 716.15C914.87 706.583 920.717 696.35 925.45 685.45L1014.15 688.6C1014.26 688.604 1014.37 688.641 1014.46 688.708C1014.55 688.774 1014.62 688.866 1014.66 688.971C1014.69 689.077 1014.7 689.191 1014.67 689.3C1014.64 689.408 1014.58 689.506 1014.5 689.58C1008.7 694.62 1002.75 699.15 996.65 703.17C985.41 710.577 974.19 717.083 962.99 722.69C946.777 730.797 929.697 735.977 911.75 738.23C905.303 739.043 898.527 739.21 891.42 738.73Z" fill="#8762EA"/>
<path d="M748.97 603.61L671.92 619.03C671.845 619.046 671.776 619.083 671.722 619.136C671.667 619.19 671.629 619.259 671.612 619.333C671.595 619.408 671.6 619.486 671.627 619.558C671.653 619.631 671.699 619.694 671.76 619.74L683.17 628.02C684.041 628.646 685.106 628.937 686.17 628.84L698.54 627.65C695.5 635.563 691.437 642.85 686.35 649.51L679.08 644.27C678.036 643.509 676.754 643.15 675.47 643.26C648.084 645.56 624.267 647.737 604.02 649.79C602.687 649.93 598.36 650.537 591.04 651.61C590.985 651.62 590.933 651.644 590.891 651.681C590.849 651.718 590.817 651.766 590.799 651.819C590.782 651.872 590.779 651.929 590.792 651.984C590.804 652.039 590.832 652.089 590.87 652.13L608.56 669.81C608.741 669.997 608.983 670.111 609.24 670.13L614.8 670.51L605.22 691.78L572.42 660.93C577.287 655.15 579.73 648.61 579.75 641.31C583.31 641.17 587 641.15 590.42 640.81C610.574 638.77 630.52 636.51 650.26 634.03C654.507 633.497 658.597 632.847 662.53 632.08C662.77 632.033 662.9 631.897 662.92 631.67C662.947 631.357 662.84 631.1 662.6 630.9C660.34 629.02 656.374 626.247 650.7 622.58C650.456 622.421 650.185 622.306 649.9 622.24C648.787 621.987 647.67 622.01 646.55 622.31C624.71 628.15 602.63 632.94 580.67 638.59C584.31 634.023 589.797 631.287 597.13 630.38C601.83 629.8 609.927 628.27 621.42 625.79C621.788 625.711 622.128 625.543 622.41 625.3C630.59 618.387 639.744 609.677 649.87 599.17C652.85 596.07 657.86 590.98 655.7 586.41C655.327 585.623 654.14 584.45 652.14 582.89C651.881 582.689 651.559 582.587 651.23 582.6C637.164 583.327 622.717 584.823 607.89 587.09C601.99 587.99 596.967 588.63 592.82 589.01C587.78 589.47 582.734 589.943 577.68 590.43C573.707 590.81 568.034 591.917 560.66 593.75C558.807 594.21 553.18 595.59 543.78 597.89C536.88 599.58 531.34 602.17 524.77 605.75C522.697 606.877 520.01 608.163 516.71 609.61C510.79 612.21 505.034 615.06 499.44 618.16C494.91 620.66 491.09 623.75 486.47 626.1C481.59 628.57 477.31 632.43 472.38 635.05C467.52 637.62 462.41 641.26 457.5 646.07C453.84 649.663 449.857 652.79 445.55 655.45C444.627 656.021 443.775 656.696 443.01 657.46C439.19 661.273 434.714 665.563 429.58 670.33C425.72 673.92 421.33 679.58 417.2 683.3C411.85 688.14 407.48 694.29 402.6 699.54C395.57 707.08 390.99 714.01 383.09 724.32C379.55 728.94 376.71 734.14 372.99 738.37C369.95 741.83 367.29 745.233 365.01 748.58C361.34 753.96 358.32 757.52 355.12 762.89C352.96 766.51 350.6 770.52 347.23 773.76C351.59 767.093 355.914 760.407 360.2 753.7C365.04 746.127 369.464 739.503 373.47 733.83C382.024 721.71 389.564 711.547 396.09 703.34C400.11 698.287 405.794 691.703 413.14 683.59C444.63 648.82 482.63 621.59 525.71 602.78C540.7 596.23 557.39 591.16 573.74 588.9C577.68 588.353 594.674 586.317 624.72 582.79C627.48 582.463 644.447 580.3 675.62 576.3C693.8 573.96 711.987 571.75 730.18 569.67C731.947 570.723 733.784 571.133 735.69 570.9C749.52 569.17 758.52 568.74 770.99 566.66C775.957 565.833 783.2 565 792.72 564.16C792.785 564.154 792.849 564.162 792.91 564.183C792.971 564.203 793.028 564.236 793.075 564.279C793.123 564.322 793.162 564.375 793.188 564.433C793.215 564.492 793.229 564.556 793.23 564.62C793.35 572.31 789.15 576.79 783.81 581.83C781.924 583.617 775.237 589.113 763.75 598.32C763.397 598.601 762.972 598.781 762.52 598.84C757.3 599.493 752.767 600.64 748.92 602.28C748.848 602.308 748.787 602.358 748.745 602.422C748.702 602.487 748.681 602.563 748.685 602.641C748.688 602.718 748.715 602.792 748.763 602.853C748.811 602.914 748.876 602.958 748.95 602.98C748.977 602.987 749.06 602.967 749.2 602.92C749.211 602.917 749.222 602.918 749.233 602.921C749.243 602.924 749.252 602.931 749.26 602.939C749.267 602.947 749.272 602.957 749.274 602.968C749.275 602.979 749.274 602.99 749.27 603L748.97 603.61Z" fill="#1EC4D6"/>
<path d="M1272.89 746.84L1248.08 803.75C1247.98 803.982 1247.81 804.179 1247.59 804.318C1247.38 804.456 1247.13 804.53 1246.87 804.53H1182.41C1182.31 804.531 1182.22 804.507 1182.14 804.462C1182.05 804.417 1181.98 804.351 1181.93 804.271C1181.88 804.191 1181.85 804.099 1181.85 804.005C1181.84 803.91 1181.86 803.816 1181.9 803.73L1257.3 638.53C1261.03 632.177 1264.84 625.903 1268.74 619.71C1279.34 602.89 1279.64 623.49 1279.74 629.15C1280.01 645.17 1279.29 660.63 1277.76 677.73C1277.48 680.783 1277.15 688.053 1276.76 699.54C1276.23 715.333 1274.94 731.1 1272.89 746.84Z" fill="#1EC4D6"/>
<path d="M557.74 648C557.087 647.267 556.36 646.73 555.56 646.39C555.396 646.32 555.22 646.285 555.043 646.287C554.866 646.289 554.691 646.327 554.53 646.4C549.84 648.47 545.66 651.18 540.87 653.56C534.05 656.967 527.66 660.34 521.7 663.68C512.97 668.59 505.18 672 497.13 677.11C495.997 677.823 495.033 678.57 494.24 679.35C494.187 679.403 494.145 679.466 494.117 679.535C494.089 679.605 494.076 679.679 494.077 679.754C494.079 679.829 494.096 679.903 494.128 679.971C494.159 680.039 494.204 680.1 494.26 680.15L520.32 703.53C521.232 704.344 522.368 704.863 523.58 705.02L576.95 711.79L579.65 723.44C568.643 721.873 557.777 720.32 547.05 718.78C544.17 718.36 540.89 718.23 537.85 718.12C537.781 718.118 537.713 718.137 537.655 718.175C537.597 718.213 537.551 718.267 537.525 718.332C537.499 718.396 537.493 718.466 537.509 718.534C537.524 718.602 537.559 718.663 537.61 718.71L547.33 727.41C551.517 733.323 555.803 738.207 560.19 742.06C566.18 747.31 577.55 744.63 579.77 754.48C580.45 757.453 581.14 760.25 581.84 762.87C581.909 763.129 581.915 763.4 581.856 763.662C581.798 763.923 581.678 764.166 581.506 764.371C581.334 764.575 581.116 764.734 580.869 764.835C580.622 764.936 580.355 764.975 580.09 764.95C572.85 764.303 566.937 763.633 562.35 762.94C555.29 761.873 549.387 761.22 544.64 760.98C538.47 760.67 525.8 759.4 515.96 758.33C508.627 757.53 501.253 757.143 493.84 757.17C493.751 757.173 493.664 757.2 493.589 757.248C493.514 757.297 493.453 757.365 493.414 757.445C493.375 757.525 493.359 757.615 493.367 757.704C493.375 757.793 493.407 757.878 493.46 757.95C493.573 758.097 493.43 758.447 493.03 759C482.71 758.89 471.57 758.57 462.01 759.34C449.73 760.34 438.563 761.82 428.51 763.78C420.617 765.32 411.117 767.913 400.01 771.56C376.1 779.42 354.57 791.46 335.15 806.67C331.117 809.83 327.147 813.323 323.24 817.15C323.185 817.196 323.116 817.222 323.044 817.224C322.973 817.226 322.902 817.204 322.844 817.162C322.787 817.119 322.745 817.058 322.726 816.989C322.707 816.92 322.712 816.846 322.74 816.78C328.987 804.447 335.803 792.267 343.19 780.24L339.5 790.59C339.383 790.919 339.363 791.275 339.441 791.617C339.519 791.958 339.692 792.272 339.94 792.52L343.07 795.65C343.251 795.83 343.473 795.962 343.717 796.032C343.96 796.102 344.216 796.108 344.46 796.05C351.16 794.46 354.3 791.58 359.19 786.95C361.39 784.87 363.86 783.083 366.6 781.59C374.24 777.45 381.083 774.6 387.13 773.04C399.55 769.84 404.25 767.84 419.32 763.26C424.7 761.62 430.21 758.28 435.45 757.56C443.23 756.493 449.87 756 455.37 756.08C462.75 756.18 474.33 756.98 484.18 756.39C488.273 756.137 492.793 756.01 497.74 756.01C497.78 756.011 497.82 756.001 497.853 755.98C497.887 755.958 497.914 755.927 497.93 755.891C497.946 755.854 497.951 755.813 497.944 755.774C497.937 755.735 497.918 755.698 497.89 755.67C497.823 755.596 497.707 755.573 497.54 755.6C497.493 755.612 497.442 755.603 497.399 755.577C497.356 755.551 497.324 755.509 497.31 755.46C495.91 750.207 494.62 745.8 493.44 742.24C493.313 741.847 493.327 741.477 493.48 741.13C493.505 741.07 493.517 741.006 493.514 740.942C493.512 740.878 493.495 740.815 493.465 740.757C493.436 740.7 493.394 740.65 493.343 740.611C493.292 740.571 493.233 740.544 493.17 740.53C487.73 739.37 482.71 739.32 475.54 739.53C474.94 739.543 469.993 739.67 460.7 739.91C454.48 740.07 449.543 740.343 445.89 740.73C433.79 742.03 421.823 744.693 409.99 748.72C406.877 749.786 403.723 750.397 400.53 750.55C400.398 750.557 400.267 750.529 400.15 750.469C400.033 750.409 399.933 750.319 399.86 750.209C399.787 750.098 399.745 749.969 399.736 749.836C399.727 749.703 399.753 749.57 399.81 749.45C402.563 743.737 406.393 738.77 411.3 734.55C416.347 730.21 420.457 726.75 423.63 724.17C429.937 719.043 434.07 715.62 436.03 713.9C439.783 710.613 444.127 706.997 449.06 703.05C452.32 700.45 456.72 698.49 459.57 697.01C461.61 695.95 463.763 694.597 466.03 692.95C469.78 690.23 473.94 687.75 477.09 685.43C490.55 675.5 499.12 668.81 511.12 663.24C522.99 657.74 536.45 653.28 549.14 646.45C551.167 645.357 553.783 644.97 556.99 645.29C557.138 645.304 557.277 645.369 557.381 645.476C557.485 645.582 557.549 645.721 557.56 645.87L557.74 648ZM542.92 741.37C541.127 739.49 537.443 736.32 531.87 731.86C508.59 713.26 492.197 700.41 482.69 693.31C480.757 691.863 478.88 690.617 477.06 689.57C476.793 689.417 476.489 689.341 476.181 689.352C475.874 689.362 475.576 689.459 475.32 689.63C461.93 698.58 448.87 707.18 435.75 717.82C420.19 730.45 411.26 737.07 400.96 748.12C400.92 748.162 400.89 748.214 400.873 748.27C400.856 748.326 400.853 748.385 400.864 748.443C400.875 748.501 400.899 748.555 400.935 748.601C400.971 748.648 401.017 748.685 401.07 748.71C401.317 748.837 401.547 748.87 401.76 748.81C409.15 746.84 418.57 743.63 426.25 742.15C442.11 739.103 454.61 737.387 463.75 737C480.203 736.313 494.557 736.64 506.81 737.98C520.463 739.466 532.44 740.716 542.74 741.73C542.784 741.733 542.829 741.723 542.868 741.7C542.907 741.678 542.938 741.646 542.958 741.606C542.977 741.567 542.984 741.524 542.978 741.481C542.971 741.439 542.951 741.4 542.92 741.37Z" fill="#1EC4D6"/>
<path d="M1367.29 523.52C1368.98 539.78 1369.02 556.39 1367.39 573.35C1365.75 590.457 1364.18 610.427 1362.68 633.26C1355.83 617.32 1349.18 601.303 1342.73 585.21C1342.61 584.903 1342.45 584.723 1342.24 584.67C1341.9 584.583 1341.66 584.7 1341.53 585.02C1330.78 611.433 1319.71 637.86 1308.32 664.3C1308.57 639.793 1308.82 615.353 1309.08 590.98C1309.28 571.987 1307.76 553.15 1304.51 534.47L1309.13 524.16C1309.23 523.948 1309.38 523.769 1309.57 523.643C1309.77 523.517 1309.99 523.45 1310.22 523.45L1367.29 523.52Z" fill="#4F9DDE"/>
<path d="M973.27 539.33C962.31 551.363 951.093 563.093 939.62 574.52C930.326 583.773 921.85 593.893 914.19 604.88C884.79 607.86 865.9 609.82 857.52 610.76C856.713 610.847 855.53 611.243 853.97 611.95C852.736 612.51 848.343 615.35 840.79 620.47C840.733 620.508 840.691 620.562 840.669 620.625C840.646 620.689 840.645 620.758 840.665 620.823C840.685 620.889 840.725 620.947 840.78 620.989C840.834 621.032 840.901 621.057 840.97 621.06C844.903 621.207 850.91 620.96 858.99 620.32C867.99 619.607 877.013 618.99 886.06 618.47C882.94 625.59 879.973 631.383 877.16 635.85C868.41 649.73 863.38 657.6 857.28 669.95C827.693 670.13 798.1 670.303 768.5 670.47C765.413 670.49 763.01 670.923 761.29 671.77C757.663 673.57 754.27 675.523 751.11 677.63C751.048 677.674 751.001 677.737 750.976 677.809C750.951 677.881 750.948 677.959 750.969 678.032C750.99 678.105 751.033 678.17 751.092 678.218C751.151 678.266 751.224 678.295 751.3 678.3L844.22 682.31C833.63 698.87 822.36 714.8 813.18 732.3L705.59 723.32C712.643 715.527 718.61 708.183 723.49 701.29C730.276 691.683 735.52 681.1 739.22 669.54C744.94 666.66 750.486 663.573 755.86 660.28C766.473 653.753 771.883 650.43 772.09 650.31C782.237 644.323 792.23 638.027 802.07 631.42C802.113 631.39 802.148 631.349 802.17 631.301C802.192 631.253 802.2 631.199 802.194 631.147C802.188 631.094 802.167 631.045 802.135 631.003C802.102 630.961 802.059 630.929 802.01 630.91C801.583 630.737 801.076 630.667 800.49 630.7C778.37 631.94 756.316 633.643 734.33 635.81C732.383 631.663 729.51 628.207 725.71 625.44L820.28 618.58C820.681 618.547 821.068 618.42 821.41 618.21C824.41 616.36 826.62 615.21 829.3 613.49C847.83 601.59 870.78 587.7 887.71 576.69C888.877 575.93 889.733 575.26 890.28 574.68C890.31 574.651 890.329 574.613 890.335 574.571C890.341 574.53 890.333 574.487 890.313 574.451C890.292 574.414 890.26 574.386 890.222 574.369C890.183 574.353 890.14 574.35 890.1 574.36L836.03 585.65C841.343 578.017 845.983 569.957 849.95 561.47C850.173 560.997 850.23 560.462 850.112 559.952C849.994 559.443 849.708 558.987 849.3 558.66C848.346 557.893 846.8 557.513 844.66 557.52C840.593 557.54 836.52 557.673 832.44 557.92C832.407 557.927 832.374 557.92 832.348 557.901C832.322 557.882 832.305 557.853 832.301 557.82C832.297 557.787 832.306 557.752 832.327 557.724C832.347 557.696 832.377 557.677 832.41 557.67L838.71 556.06L973.27 539.33Z" fill="#4F9DDE"/>
<path d="M1377.7 694.18C1375.9 710.707 1374.71 727.24 1374.14 743.78C1374.13 743.93 1374.18 744.078 1374.26 744.203C1374.35 744.327 1374.48 744.421 1374.62 744.47C1375.03 744.61 1375.51 744.673 1376.04 744.66L1299.03 744.62L1302.99 744.5C1303.13 744.495 1303.26 744.438 1303.36 744.339C1303.46 744.241 1303.51 744.109 1303.52 743.97C1304.39 727.39 1304.47 710.807 1303.77 694.22L1377.7 694.18Z" fill="#4F9DDE"/>
<path d="M757.32 740.28L737.77 788.63L655.76 777.29C665.47 775.42 673.05 774.01 677.74 764.24C681.66 756.067 683.933 748.623 684.56 741.91C684.9 738.257 683.613 734.35 680.7 730.19L757.32 740.28Z" fill="#4F9DDE"/>
<path d="M1422.48 627.52C1416.68 648.31 1414.48 666.6 1412.84 689.16C1411.51 707.453 1410.03 725.723 1408.42 743.97C1408.4 744.122 1408.34 744.263 1408.22 744.366C1408.11 744.47 1407.97 744.528 1407.82 744.53L1397.53 744.64L1376.04 744.66C1375.51 744.673 1375.03 744.61 1374.62 744.47C1374.48 744.421 1374.35 744.327 1374.26 744.203C1374.18 744.078 1374.13 743.93 1374.14 743.78C1374.71 727.24 1375.9 710.707 1377.7 694.18L1387.77 694.29C1387.88 694.293 1388 694.267 1388.1 694.214C1388.2 694.162 1388.29 694.085 1388.35 693.99C1388.41 693.895 1388.45 693.786 1388.46 693.673C1388.47 693.559 1388.46 693.445 1388.41 693.34L1362.68 633.26C1364.18 610.427 1365.75 590.457 1367.39 573.35C1369.02 556.39 1368.98 539.78 1367.29 523.52L1374.25 523.54C1374.56 523.54 1374.86 523.628 1375.11 523.793C1375.37 523.958 1375.57 524.193 1375.7 524.47L1422.48 627.52Z" fill="#727AE5"/>
<path d="M1062.94 527.98C1057.13 539.047 1051.12 548.727 1044.9 557.02C1035.65 569.333 1026.42 581.733 1017.21 594.22L914.189 604.88C921.849 593.893 930.326 583.773 939.619 574.52C951.093 563.093 962.309 551.363 973.269 539.33L1062.94 527.98Z" fill="#727AE5"/>
<path d="M968.489 612.79C963.509 621.39 959.596 627.653 956.749 631.58C947.029 644.98 940.039 655.24 933.449 669.25L857.279 669.95C863.379 657.6 868.409 649.73 877.159 635.85C879.973 631.383 882.939 625.59 886.059 618.47L968.489 612.79Z" fill="#727AE5"/>
<path d="M925.45 685.45C920.716 696.35 914.87 706.583 907.91 716.15C902.456 723.643 896.96 731.17 891.42 738.73L813.18 732.3C822.36 714.8 833.63 698.87 844.22 682.31L925.45 685.45Z" fill="#727AE5"/>
<path d="M737.77 788.63L757.32 740.28L876.51 757.31C876.607 757.326 876.699 757.37 876.772 757.438C876.845 757.505 876.897 757.592 876.92 757.687C876.944 757.783 876.938 757.882 876.904 757.974C876.87 758.065 876.809 758.144 876.729 758.2C867.056 764.927 856.636 771.007 845.469 776.44C818.629 789.51 789.8 795.15 760.56 791.88C756.986 791.48 749.39 790.397 737.77 788.63Z" fill="#727AE5"/>
<path d="M1308.32 664.3L1295.77 693.18C1295.72 693.302 1295.7 693.436 1295.71 693.569C1295.72 693.702 1295.76 693.83 1295.84 693.941C1295.91 694.052 1296.01 694.143 1296.13 694.206C1296.25 694.269 1296.38 694.301 1296.51 694.3L1303.77 694.22C1304.47 710.807 1304.39 727.39 1303.52 743.97C1303.52 744.109 1303.46 744.241 1303.36 744.339C1303.26 744.438 1303.13 744.495 1302.99 744.5L1299.03 744.62C1286.3 744.547 1278.29 744.57 1275 744.69C1274.21 744.723 1273.5 745.44 1272.89 746.84C1274.94 731.1 1276.23 715.333 1276.76 699.54C1277.15 688.053 1277.48 680.783 1277.76 677.73C1279.29 660.63 1280.01 645.17 1279.74 629.15C1279.64 623.49 1279.34 602.89 1268.74 619.71C1264.84 625.903 1261.03 632.177 1257.3 638.53C1269.45 611.97 1281.62 585.433 1293.81 558.92C1297.36 551.19 1300.89 542.6 1304.51 534.47C1307.76 553.15 1309.28 571.987 1309.08 590.98C1308.82 615.353 1308.57 639.793 1308.32 664.3Z" fill="#37B1D9"/>
<path d="M838.711 556.06L832.411 557.67C832.378 557.677 832.348 557.696 832.328 557.724C832.307 557.752 832.298 557.787 832.302 557.82C832.306 557.853 832.323 557.882 832.349 557.901C832.375 557.92 832.408 557.927 832.441 557.92C836.521 557.673 840.594 557.54 844.661 557.52C846.801 557.513 848.347 557.893 849.301 558.66C849.709 558.987 849.995 559.443 850.113 559.952C850.231 560.462 850.174 560.997 849.951 561.47C845.984 569.957 841.344 578.017 836.031 585.65L748.971 603.61L749.271 603C749.275 602.99 749.276 602.979 749.274 602.968C749.272 602.957 749.267 602.947 749.26 602.939C749.253 602.931 749.243 602.925 749.233 602.921C749.222 602.918 749.211 602.917 749.201 602.92C749.061 602.967 748.977 602.987 748.951 602.98C748.877 602.958 748.811 602.914 748.763 602.853C748.716 602.792 748.688 602.718 748.685 602.641C748.682 602.564 748.703 602.487 748.745 602.423C748.787 602.358 748.849 602.308 748.921 602.28C752.767 600.64 757.301 599.493 762.521 598.84C762.972 598.781 763.397 598.601 763.751 598.32C775.237 589.113 781.924 583.617 783.811 581.83C789.151 576.79 793.351 572.31 793.231 564.62C793.23 564.556 793.215 564.492 793.188 564.434C793.162 564.375 793.123 564.322 793.076 564.279C793.028 564.236 792.972 564.203 792.911 564.183C792.849 564.162 792.785 564.155 792.721 564.16C783.201 565 775.957 565.833 770.991 566.66C758.521 568.74 749.521 569.17 735.691 570.9C733.784 571.133 731.947 570.723 730.181 569.67L838.711 556.06Z" fill="#37B1D9"/>
<path d="M725.71 625.44C729.51 628.207 732.384 631.663 734.33 635.81L697.84 638.51C697.739 638.518 697.642 638.556 697.563 638.621C697.484 638.685 697.426 638.772 697.398 638.87C697.37 638.968 697.372 639.072 697.405 639.168C697.437 639.265 697.498 639.349 697.58 639.41L739.22 669.54C735.52 681.1 730.277 691.683 723.49 701.29C718.61 708.183 712.644 715.527 705.59 723.32C697.37 722.847 689.09 722.227 680.75 721.46C675.46 720.98 669.98 724.64 665.67 727.2C665.592 727.245 665.53 727.313 665.492 727.395C665.455 727.477 665.444 727.569 665.462 727.658C665.48 727.746 665.525 727.827 665.591 727.888C665.657 727.95 665.741 727.989 665.83 728L680.7 730.19C683.614 734.35 684.9 738.257 684.56 741.91C683.934 748.623 681.66 756.067 677.74 764.24C673.05 774.01 665.47 775.42 655.76 777.29C624.547 772.937 593.287 768.81 561.98 764.91C552.654 763.75 543.317 762.67 533.97 761.67C520.357 760.21 506.71 759.32 493.03 759C493.43 758.447 493.574 758.097 493.46 757.95C493.407 757.878 493.375 757.793 493.367 757.704C493.359 757.615 493.375 757.525 493.415 757.445C493.454 757.365 493.514 757.297 493.589 757.248C493.664 757.2 493.751 757.173 493.84 757.17C501.254 757.143 508.627 757.53 515.96 758.33C525.8 759.4 538.47 760.67 544.64 760.98C549.387 761.22 555.29 761.873 562.35 762.94C566.937 763.633 572.85 764.303 580.09 764.95C580.355 764.976 580.623 764.936 580.869 764.835C581.116 764.735 581.334 764.575 581.506 764.371C581.678 764.166 581.798 763.923 581.857 763.662C581.915 763.4 581.909 763.129 581.84 762.87C581.14 760.25 580.45 757.453 579.77 754.48C577.55 744.63 566.18 747.31 560.19 742.06C555.804 738.207 551.517 733.323 547.33 727.41C552.73 731.623 557.954 735.927 563 740.32C565.47 742.48 567.92 744.12 570.85 744.65C581.204 746.517 591.634 748.09 602.14 749.37C603.267 749.507 604.408 749.297 605.41 748.77C616.817 742.803 626.424 737.537 634.23 732.97C635.11 732.457 635.817 731.937 636.35 731.41C636.408 731.35 636.449 731.276 636.467 731.195C636.486 731.113 636.481 731.029 636.454 730.95C636.427 730.871 636.379 730.802 636.315 730.749C636.25 730.696 636.173 730.661 636.09 730.65L579.65 723.44L576.95 711.79C591.57 713.417 605.934 715.54 620.04 718.16C623.65 718.83 628.02 719.11 631.62 719.39C631.68 719.393 631.739 719.379 631.79 719.349C631.841 719.318 631.882 719.274 631.908 719.22C631.933 719.167 631.942 719.107 631.934 719.048C631.926 718.989 631.9 718.934 631.86 718.89L605.22 691.78L614.8 670.51C632.11 671.04 648.93 671.78 666.74 672.16C683.227 672.52 699.654 673.283 716.02 674.45C716.547 674.49 716.917 674.477 717.13 674.41C717.279 674.361 717.411 674.272 717.512 674.152C717.613 674.033 717.679 673.888 717.704 673.732C717.729 673.577 717.711 673.418 717.652 673.271C717.593 673.124 717.496 672.996 717.37 672.9L686.35 649.51C691.437 642.85 695.5 635.563 698.54 627.65L725.71 625.44ZM716.23 684.41C714.864 684.61 713.537 684.677 712.25 684.61C695.95 683.78 682.75 683.96 666.76 683.06C650.534 682.153 634.837 681.707 619.67 681.72C619.573 681.72 619.479 681.749 619.398 681.802C619.317 681.855 619.253 681.93 619.213 682.019C619.174 682.108 619.16 682.207 619.173 682.305C619.187 682.402 619.227 682.494 619.29 682.57L652.14 720.69C652.225 720.788 652.341 720.853 652.469 720.875C652.596 720.897 652.728 720.874 652.84 720.81L716.42 684.94C716.481 684.91 716.527 684.859 716.552 684.797C716.577 684.735 716.578 684.666 716.555 684.602C716.532 684.538 716.487 684.483 716.427 684.448C716.368 684.413 716.298 684.399 716.23 684.41Z" fill="#37B1D9"/>
<path d="M580.67 638.59L578.27 639.88C578.206 639.915 578.15 639.965 578.108 640.024C578.066 640.084 578.038 640.153 578.026 640.226C578.014 640.298 578.02 640.372 578.041 640.442C578.063 640.512 578.1 640.577 578.15 640.63C578.457 640.943 578.99 641.17 579.75 641.31C579.73 648.61 577.287 655.15 572.42 660.93L557.74 648L557.56 645.87C557.549 645.722 557.486 645.582 557.381 645.476C557.277 645.37 557.138 645.304 556.99 645.29C553.784 644.97 551.167 645.357 549.14 646.45C536.45 653.28 522.99 657.74 511.12 663.24C499.12 668.81 490.55 675.5 477.09 685.43C473.94 687.75 469.78 690.23 466.03 692.95C463.764 694.597 461.61 695.95 459.57 697.01C456.72 698.49 452.32 700.45 449.06 703.05C444.127 706.997 439.784 710.613 436.03 713.9C434.07 715.62 429.937 719.043 423.63 724.17C420.457 726.75 416.347 730.21 411.3 734.55C406.393 738.77 402.564 743.737 399.81 749.45C399.753 749.57 399.727 749.704 399.736 749.837C399.745 749.97 399.788 750.098 399.86 750.209C399.933 750.32 400.033 750.409 400.15 750.469C400.268 750.529 400.399 750.557 400.53 750.55C403.724 750.397 406.877 749.787 409.99 748.72C421.823 744.693 433.79 742.03 445.89 740.73C449.544 740.343 454.48 740.07 460.7 739.91C469.994 739.67 474.94 739.543 475.54 739.53C482.71 739.32 487.73 739.37 493.17 740.53C493.233 740.544 493.292 740.572 493.343 740.611C493.394 740.65 493.436 740.7 493.465 740.758C493.495 740.815 493.512 740.878 493.514 740.942C493.517 741.007 493.505 741.071 493.48 741.13C493.327 741.477 493.314 741.847 493.44 742.24C494.62 745.8 495.91 750.207 497.31 755.46C497.325 755.509 497.357 755.552 497.399 755.578C497.442 755.604 497.493 755.612 497.54 755.6C497.707 755.573 497.824 755.597 497.89 755.67C497.918 755.699 497.937 755.735 497.944 755.774C497.951 755.814 497.947 755.854 497.93 755.891C497.914 755.928 497.888 755.958 497.854 755.98C497.82 756.001 497.78 756.012 497.74 756.01C492.794 756.01 488.274 756.137 484.18 756.39C474.33 756.98 462.75 756.18 455.37 756.08C449.87 756 443.23 756.493 435.45 757.56C430.21 758.28 424.7 761.62 419.32 763.26C404.25 767.84 399.55 769.84 387.13 773.04C381.084 774.6 374.24 777.45 366.6 781.59C363.86 783.083 361.39 784.87 359.19 786.95C354.3 791.58 351.16 794.46 344.46 796.05C344.216 796.108 343.96 796.102 343.717 796.032C343.474 795.962 343.251 795.83 343.07 795.65L339.94 792.52C339.692 792.272 339.519 791.959 339.441 791.617C339.363 791.276 339.384 790.919 339.5 790.59L343.19 780.24L347.23 773.76C350.6 770.52 352.96 766.51 355.12 762.89C358.32 757.52 361.34 753.96 365.01 748.58C367.29 745.233 369.95 741.83 372.99 738.37C376.71 734.14 379.55 728.94 383.09 724.32C390.99 714.01 395.57 707.08 402.6 699.54C407.48 694.29 411.85 688.14 417.2 683.3C421.33 679.58 425.72 673.92 429.58 670.33C434.713 665.563 439.19 661.273 443.01 657.46C443.774 656.696 444.627 656.021 445.55 655.45C449.857 652.79 453.84 649.663 457.5 646.07C462.41 641.26 467.52 637.62 472.38 635.05C477.31 632.43 481.59 628.57 486.47 626.1C491.09 623.75 494.91 620.66 499.44 618.16C505.034 615.06 510.79 612.21 516.71 609.61C520.01 608.163 522.697 606.877 524.77 605.75C531.34 602.17 536.88 599.58 543.78 597.89C553.18 595.59 558.807 594.21 560.66 593.75C568.033 591.917 573.707 590.81 577.68 590.43C582.734 589.943 587.78 589.47 592.82 589.01C596.967 588.63 601.99 587.99 607.89 587.09C622.717 584.823 637.163 583.327 651.23 582.6C651.559 582.587 651.881 582.69 652.14 582.89C654.14 584.45 655.327 585.623 655.7 586.41C657.86 590.98 652.85 596.07 649.87 599.17C639.744 609.677 630.59 618.387 622.41 625.3C622.128 625.543 621.788 625.711 621.42 625.79C609.927 628.27 601.83 629.8 597.13 630.38C589.797 631.287 584.31 634.023 580.67 638.59Z" fill="#05D4D7"/>
</svg>
